<?xml version="1.0" encoding="UTF-8" standalone="no"?>
<!DOCTYPE svg PUBLIC "-//W3C//DTD SVG 1.1//EN"
 "http://www.w3.org/Graphics/SVG/1.1/DTD/svg11.dtd">
<!-- Generated by graphviz version 2.50.0 (0)
 -->
<!-- Pages: 1 -->
<svg width="1039pt" height="188pt"
 viewBox="0.00 0.00 1039.14 188.00" xmlns="http://www.w3.org/2000/svg" xmlns:xlink="http://www.w3.org/1999/xlink">
<g id="graph0" class="graph" transform="scale(1 1) rotate(0) translate(4 184)">
<polygon fill="white" stroke="transparent" points="-4,4 -4,-184 1035.14,-184 1035.14,4 -4,4"/>
<!-- Race -->
<g id="node1" class="node">
<title>Race</title>
<ellipse fill="none" stroke="black" cx="230.69" cy="-162" rx="33.29" ry="18"/>
<text text-anchor="middle" x="230.69" y="-158.3" font-family="Times,serif" font-size="14.00">Race</text>
</g>
<!-- Perceived Threat Level -->
<g id="node8" class="node">
<title>Perceived Threat Level</title>
<ellipse fill="none" stroke="black" cx="355.69" cy="-90" rx="117.78" ry="18"/>
<text text-anchor="middle" x="355.69" y="-86.3" font-family="Times,serif" font-size="14.00">Perceived Threat Level</text>
</g>
<!-- Race&#45;&gt;Perceived Threat Level -->
<g id="edge1" class="edge">
<title>Race&#45;&gt;Perceived Threat Level</title>
<path fill="none" stroke="black" d="M253.04,-148.49C270.86,-138.51 296.23,-124.3 317.29,-112.51"/>
<polygon fill="black" stroke="black" points="319,-115.56 326.02,-107.62 315.58,-109.45 319,-115.56"/>
</g>
<!-- Age -->
<g id="node2" class="node">
<title>Age</title>
<ellipse fill="none" stroke="black" cx="310.69" cy="-162" rx="28.7" ry="18"/>
<text text-anchor="middle" x="310.69" y="-158.3" font-family="Times,serif" font-size="14.00">Age</text>
</g>
<!-- Age&#45;&gt;Perceived Threat Level -->
<g id="edge2" class="edge">
<title>Age&#45;&gt;Perceived Threat Level</title>
<path fill="none" stroke="black" d="M320.9,-145.12C326.25,-136.8 332.93,-126.41 339,-116.96"/>
<polygon fill="black" stroke="black" points="342.11,-118.6 344.58,-108.29 336.22,-114.81 342.11,-118.6"/>
</g>
<!-- Gender -->
<g id="node3" class="node">
<title>Gender</title>
<ellipse fill="none" stroke="black" cx="401.69" cy="-162" rx="44.69" ry="18"/>
<text text-anchor="middle" x="401.69" y="-158.3" font-family="Times,serif" font-size="14.00">Gender</text>
</g>
<!-- Gender&#45;&gt;Perceived Threat Level -->
<g id="edge3" class="edge">
<title>Gender&#45;&gt;Perceived Threat Level</title>
<path fill="none" stroke="black" d="M390.79,-144.41C385.31,-136.08 378.56,-125.8 372.44,-116.49"/>
<polygon fill="black" stroke="black" points="375.25,-114.39 366.83,-107.96 369.4,-118.24 375.25,-114.39"/>
</g>
<!-- Armed Status -->
<g id="node4" class="node">
<title>Armed Status</title>
<ellipse fill="none" stroke="black" cx="539.69" cy="-162" rx="74.99" ry="18"/>
<text text-anchor="middle" x="539.69" y="-158.3" font-family="Times,serif" font-size="14.00">Armed Status</text>
</g>
<!-- Armed Status&#45;&gt;Perceived Threat Level -->
<g id="edge4" class="edge">
<title>Armed Status&#45;&gt;Perceived Threat Level</title>
<path fill="none" stroke="black" d="M501.57,-146.5C474.21,-136.09 437.04,-121.95 407.07,-110.55"/>
<polygon fill="black" stroke="black" points="408.21,-107.23 397.62,-106.95 405.72,-113.78 408.21,-107.23"/>
</g>
<!-- Signs of Mental Illness -->
<g id="node5" class="node">
<title>Signs of Mental Illness</title>
<ellipse fill="none" stroke="black" cx="749.69" cy="-162" rx="116.98" ry="18"/>
<text text-anchor="middle" x="749.69" y="-158.3" font-family="Times,serif" font-size="14.00">Signs of Mental Illness</text>
</g>
<!-- Signs of Mental Illness&#45;&gt;Perceived Threat Level -->
<g id="edge5" class="edge">
<title>Signs of Mental Illness&#45;&gt;Perceived Threat Level</title>
<path fill="none" stroke="black" d="M676.05,-147.92C608.86,-135.98 509.63,-118.35 439.45,-105.88"/>
<polygon fill="black" stroke="black" points="439.77,-102.38 429.31,-104.08 438.54,-109.27 439.77,-102.38"/>
</g>
<!-- Fleeing Behavior -->
<g id="node6" class="node">
<title>Fleeing Behavior</title>
<ellipse fill="none" stroke="black" cx="89.69" cy="-162" rx="89.88" ry="18"/>
<text text-anchor="middle" x="89.69" y="-158.3" font-family="Times,serif" font-size="14.00">Fleeing Behavior</text>
</g>
<!-- Fleeing Behavior&#45;&gt;Perceived Threat Level -->
<g id="edge6" class="edge">
<title>Fleeing Behavior&#45;&gt;Perceived Threat Level</title>
<path fill="none" stroke="black" d="M141.93,-147.25C184.07,-136.16 243.64,-120.49 289.19,-108.5"/>
<polygon fill="black" stroke="black" points="290.19,-111.86 298.97,-105.93 288.41,-105.09 290.19,-111.86"/>
</g>
<!-- Manner of Death -->
<g id="node9" class="node">
<title>Manner of Death</title>
<ellipse fill="none" stroke="black" cx="355.69" cy="-18" rx="89.08" ry="18"/>
<text text-anchor="middle" x="355.69" y="-14.3" font-family="Times,serif" font-size="14.00">Manner of Death</text>
</g>
<!-- Fleeing Behavior&#45;&gt;Manner of Death -->
<g id="edge7" class="edge">
<title>Fleeing Behavior&#45;&gt;Manner of Death</title>
<path fill="none" stroke="black" d="M113.04,-144.26C140.06,-125.31 186.3,-94.2 228.69,-72 253.15,-59.19 281.41,-47.14 305.06,-37.78"/>
<polygon fill="black" stroke="black" points="306.51,-40.97 314.54,-34.07 303.96,-34.45 306.51,-40.97"/>
</g>
<!-- Body Camera -->
<g id="node7" class="node">
<title>Body Camera</title>
<ellipse fill="none" stroke="black" cx="957.69" cy="-162" rx="73.39" ry="18"/>
<text text-anchor="middle" x="957.69" y="-158.3" font-family="Times,serif" font-size="14.00">Body Camera</text>
</g>
<!-- Police Response -->
<g id="node10" class="node">
<title>Police Response</title>
<ellipse fill="none" stroke="black" cx="789.69" cy="-90" rx="85.29" ry="18"/>
<text text-anchor="middle" x="789.69" y="-86.3" font-family="Times,serif" font-size="14.00">Police Response</text>
</g>
<!-- Body Camera&#45;&gt;Police Response -->
<g id="edge9" class="edge">
<title>Body Camera&#45;&gt;Police Response</title>
<path fill="none" stroke="black" d="M922.06,-146.15C896.9,-135.67 862.96,-121.53 835.75,-110.19"/>
<polygon fill="black" stroke="black" points="837.01,-106.92 826.43,-106.31 834.32,-113.38 837.01,-106.92"/>
</g>
<!-- Perceived Threat Level&#45;&gt;Manner of Death -->
<g id="edge8" class="edge">
<title>Perceived Threat Level&#45;&gt;Manner of Death</title>
<path fill="none" stroke="black" d="M355.69,-71.7C355.69,-63.98 355.69,-54.71 355.69,-46.11"/>
<polygon fill="black" stroke="black" points="359.19,-46.1 355.69,-36.1 352.19,-46.1 359.19,-46.1"/>
</g>
<!-- Police Response&#45;&gt;Manner of Death -->
<g id="edge10" class="edge">
<title>Police Response&#45;&gt;Manner of Death</title>
<path fill="none" stroke="black" d="M724.25,-78.44C646.28,-65.87 516.17,-44.88 433.22,-31.51"/>
<polygon fill="black" stroke="black" points="433.53,-28.01 423.1,-29.87 432.41,-34.92 433.53,-28.01"/>
</g>
</g>
</svg>
